<?xml version="1.0" encoding="UTF-8" standalone="no"?>
<!-- Created with Inkscape (http://www.inkscape.org/) -->
<svg
   xmlns:dc="http://purl.org/dc/elements/1.1/"
   xmlns:cc="http://creativecommons.org/ns#"
   xmlns:rdf="http://www.w3.org/1999/02/22-rdf-syntax-ns#"
   xmlns:svg="http://www.w3.org/2000/svg"
   xmlns="http://www.w3.org/2000/svg"
   xmlns:sodipodi="http://sodipodi.sourceforge.net/DTD/sodipodi-0.dtd"
   xmlns:inkscape="http://www.inkscape.org/namespaces/inkscape"
   version="1.1"
   width="55"
   height="55"
   viewBox="0 0 55 55"
   id="svg2"
   xml:space="preserve"
   inkscape:version="0.48.5 r10040"
   sodipodi:docname="save-as-ogg.svg"><sodipodi:namedview
     pagecolor="#ffffff"
     bordercolor="#666666"
     borderopacity="1"
     objecttolerance="10"
     gridtolerance="10"
     guidetolerance="10"
     inkscape:pageopacity="0"
     inkscape:pageshadow="2"
     inkscape:window-width="1280"
     inkscape:window-height="734"
     id="namedview3067"
     showgrid="false"
     inkscape:zoom="8.5818182"
     inkscape:cx="11.282115"
     inkscape:cy="32.161017"
     inkscape:window-x="0"
     inkscape:window-y="27"
     inkscape:window-maximized="1"
     inkscape:current-layer="svg2" /><metadata
     id="metadata25"><rdf:RDF><cc:Work
         rdf:about=""><dc:format>image/svg+xml</dc:format><dc:type
           rdf:resource="http://purl.org/dc/dcmitype/StillImage" /><dc:title></dc:title></cc:Work></rdf:RDF></metadata><defs
     id="defs33" /><g
     transform="matrix(0.55205508,0,0,0.55205508,77.118464,18.235971)"
     id="g4382"><g
       transform="translate(-80.093659,12.220029)"
       id="g4308"
       style="fill:none;stroke:#ffffff;stroke-opacity:1"><g
         id="g4310"
         style="fill:none;stroke:#ffffff;stroke-opacity:1"><path
           d="m 6.736,49.002 h 24.52 c 2.225,0 3.439,-1.447 3.439,-3.441 v -27.28 c 0,-1.73 -1.732,-3.441 -3.439,-3.441 h -4.389"
           id="path4312"
           style="fill:none;stroke:#ffffff;stroke-width:3.5;stroke-linecap:round;stroke-linejoin:round;stroke-opacity:1" /></g></g><g
       transform="translate(-80.093659,12.220029)"
       id="g4314"
       style="fill:none;stroke:#ffffff;stroke-opacity:1"><g
         id="g4316"
         style="fill:none;stroke:#ffffff;stroke-opacity:1"><path
           d="m 26.867,38.592 c 0,1.836 -1.345,3.201 -3.441,4.047 L 6.736,49.002 V 14.84 l 16.69,-8.599 c 2.228,-0.394 3.441,0.84 3.441,2.834 v 29.517 z"
           id="path4318"
           style="fill:none;stroke:#ffffff;stroke-width:3.5;stroke-linecap:round;stroke-linejoin:round;stroke-opacity:1" /></g></g><path
       d="m -70.669659,54.827029 c 0,0 -1.351,-0.543 -2.702,-0.543 -1.351,0 -2.703,0.543 -2.703,0.543"
       id="path4320"
       style="fill:none;stroke:#ffffff;stroke-width:2.25;stroke-linecap:round;stroke-linejoin:round;stroke-opacity:1" /><path
       d="m -70.669659,44.226029 c 0,0 -1.239,-0.543 -2.815,-0.543 -1.577,0 -2.59,0.543 -2.59,0.543"
       id="path4322"
       style="fill:none;stroke:#ffffff;stroke-width:2.25;stroke-linecap:round;stroke-linejoin:round;stroke-opacity:1" /><path
       d="m -70.669659,33.898029 c 0,0 -1.125,-0.544 -2.927,-0.544 -1.802,0 -2.478,0.544 -2.478,0.544"
       id="path4324"
       style="fill:none;stroke:#ffffff;stroke-width:2.25;stroke-linecap:round;stroke-linejoin:round;stroke-opacity:1" /><line
       style="fill:none;stroke:#ffffff;stroke-width:2.25;stroke-linecap:round;stroke-linejoin:round;stroke-opacity:1"
       x1="-66.884659"
       x2="-66.884659"
       y1="58.753029"
       y2="23.725029"
       id="line4326" /></g><g
     transform="matrix(1.1623273,0,0,1.1623273,-14.422024,-12.63995)"
     id="g3882"
     style="fill:none;stroke:#ffffff;stroke-width:2.15085721;stroke-miterlimit:4;stroke-opacity:1;stroke-dasharray:none;display:inline"><g
       id="g3884"
       style="fill:none;stroke:#ffffff;stroke-width:2.15085721;stroke-miterlimit:4;stroke-opacity:1;stroke-dasharray:none" /></g><g
     transform="matrix(1,0,0,-1,-24.850339,47.707501)"
     id="g4770"><g
       transform="translate(34.0803,-1006.42)"
       id="g4772"><polyline
         transform="matrix(-0.469241,0.469241,-0.469241,-0.469241,66.2906,1019.03)"
         style="fill:none;stroke:#ffffff;stroke-width:3.5;stroke-linecap:round;stroke-linejoin:round"
         points="51.562,15.306 41.17,16.188 42.053,5.794"
         id="polyline4774" /><path
         d="m 39.363241,1033.1291 -0.05636,9.9115 -8.750608,0.067"
         id="path4776"
         style="fill:none;stroke:#ffffff;stroke-width:2.5;stroke-linecap:round;stroke-linejoin:round;stroke-miterlimit:4;stroke-opacity:1;stroke-dasharray:none" /></g></g><g
     transform="matrix(0.752417,0,0,0.76128944,-1.1691777,-5.3307465)"
     style="display:inline"
     display="inline"
     id="g3125"><g
       id="g3127"><polygon
         style="stroke:#ffffff;stroke-width:3.30320712000000016;stroke-opacity:1;stroke-miterlimit:4;stroke-dasharray:none;fill:none"
         points="5.962,43.944 48.788,43.944 48.788,23.002 36.849,11.058 5.962,11.058 "
         id="polygon3129" /><polyline
         style="fill:none;stroke:#ffffff;stroke-width:3.30320712;stroke-opacity:1;stroke-miterlimit:4;stroke-dasharray:none"
         points="36.849,11.058 36.849,23.002 48.788,23.002    "
         id="polyline3131" /></g></g><path
     style="fill:#ffffff;display:inline;fill-opacity:1"
     inkscape:connector-curvature="0"
     d="m 19.525299,13.581206 c -3.579247,0 -6.561076,3.611557 -6.561076,3.611557 0,0 2.981829,3.629067 6.561076,3.626783 3.579248,-0.003 6.562581,-3.631351 6.562581,-3.631351 0,0 -2.982581,-3.609273 -6.562581,-3.606989 z m 0,6.158831 c -1.385952,0 -2.50931,-1.137366 -2.50931,-2.539661 0,-1.400012 1.123358,-2.539662 2.50931,-2.539662 1.383696,0 2.507807,1.13965 2.507807,2.539662 7.52e-4,1.402295 -1.123359,2.539661 -2.507807,2.539661 z"
     display="inline"
     id="path3133" /><circle
     transform="matrix(0.752417,0,0,0.76128944,-1.1691777,-5.3307465)"
     style="fill:#ffffff;display:inline;fill-opacity:1"
     sodipodi:ry="1.5140001"
     sodipodi:rx="1.5140001"
     sodipodi:cy="29.597"
     sodipodi:cx="27.504999"
     cx="27.504999"
     cy="29.597"
     display="inline"
     r="1.5140001"
     id="circle3135" /><circle
     transform="matrix(0.752417,0,0,0.76128944,-1.1691777,-5.3307465)"
     style="fill:#ffffff;display:inline"
     sodipodi:ry="1.5140001"
     sodipodi:rx="1.5140001"
     sodipodi:cy="29.597"
     sodipodi:cx="14.875"
     cx="14.875"
     cy="29.597"
     display="inline"
     r="1.5140001"
     id="circle3137" /><circle
     transform="matrix(0.752417,0,0,0.76128944,-1.1691777,-5.3307465)"
     style="fill:#ffffff;display:inline;fill-opacity:1"
     sodipodi:ry="1.5140001"
     sodipodi:rx="1.5140001"
     sodipodi:cy="29.597"
     sodipodi:cx="10.375"
     cx="10.375"
     cy="29.597"
     display="inline"
     r="1.5140001"
     id="circle3139" /><circle
     transform="matrix(0.752417,0,0,0.76128944,-1.1691777,-5.3307465)"
     style="fill:#ffffff;display:inline;fill-opacity:1"
     sodipodi:ry="1.5140001"
     sodipodi:rx="1.5140001"
     sodipodi:cy="29.597"
     sodipodi:cx="43.875"
     cx="43.875"
     cy="29.597"
     display="inline"
     r="1.5140001"
     id="circle3141" /><circle
     transform="matrix(0.752417,0,0,0.76128944,-1.1691777,-5.3307465)"
     style="fill:#ffffff;display:inline;fill-opacity:1"
     sodipodi:ry="1.5140001"
     sodipodi:rx="1.5140001"
     sodipodi:cy="29.597"
     sodipodi:cx="39.375"
     cx="39.375"
     cy="29.597"
     display="inline"
     r="1.5140001"
     id="circle3143" /></svg>
