<?xml version="1.0" encoding="UTF-8" standalone="no"?>
<svg
   xmlns:dc="http://purl.org/dc/elements/1.1/"
   xmlns:cc="http://creativecommons.org/ns#"
   xmlns:rdf="http://www.w3.org/1999/02/22-rdf-syntax-ns#"
   xmlns:svg="http://www.w3.org/2000/svg"
   xmlns="http://www.w3.org/2000/svg"
   xmlns:sodipodi="http://sodipodi.sourceforge.net/DTD/sodipodi-0.dtd"
   xmlns:inkscape="http://www.inkscape.org/namespaces/inkscape"
   width="100"
   height="100"
   viewBox="0 0 100 100"
   id="svg3770"
   version="1.1"
   inkscape:version="0.91 r13725"
   sodipodi:docname="summary-page.svg">
  <defs
     id="defs3772" />
  <sodipodi:namedview
     id="base"
     pagecolor="#ffffff"
     bordercolor="#666666"
     borderopacity="1.0"
     inkscape:pageopacity="0.0"
     inkscape:pageshadow="2"
     inkscape:zoom="3.959798"
     inkscape:cx="-4.4296214"
     inkscape:cy="45.745521"
     inkscape:document-units="px"
     inkscape:current-layer="layer1"
     showgrid="false"
     inkscape:snap-page="true"
     inkscape:window-width="1920"
     inkscape:window-height="1005"
     inkscape:window-x="0"
     inkscape:window-y="24"
     inkscape:window-maximized="1"
     units="px"
     width="100px" />
  <metadata
     id="metadata3775">
    <rdf:RDF>
      <cc:Work
         rdf:about="">
        <dc:format>image/svg+xml</dc:format>
        <dc:type
           rdf:resource="http://purl.org/dc/dcmitype/StillImage" />
        <dc:title />
      </cc:Work>
    </rdf:RDF>
  </metadata>
  <g
     inkscape:label="Layer 1"
     inkscape:groupmode="layer"
     id="layer1"
     transform="translate(0,-952.3622)">
    <path
       style="display:inline;fill:#ffffff;fill-opacity:1;fill-rule:evenodd;stroke:#000000;stroke-width:4;stroke-linecap:butt;stroke-linejoin:round;stroke-miterlimit:4;stroke-dasharray:none;stroke-opacity:1"
       d="m 19.766394,957.805 30,0 30.000002,30 0,60 -60.000002,0 z"
       id="path4620-7-9-5-1-4-2-2-6"
       inkscape:connector-curvature="0"
       sodipodi:nodetypes="cccccc" />
    <path
       style="display:inline;fill:none;fill-opacity:1;fill-rule:evenodd;stroke:#000000;stroke-width:4;stroke-linecap:round;stroke-linejoin:round;stroke-miterlimit:4;stroke-dasharray:none;stroke-opacity:1"
       d="m 49.640125,957.805 0,30 30.000002,0"
       id="path9927-5-6"
       inkscape:connector-curvature="0"
       sodipodi:nodetypes="ccc" />
    <g
       transform="translate(133.52272,939.28533)"
       style="font-style:normal;font-weight:normal;font-size:80px;line-height:125%;font-family:sans-serif;letter-spacing:0px;word-spacing:0px;fill:#fff000;fill-opacity:0;stroke:#000000;stroke-width:3;stroke-linecap:butt;stroke-linejoin:miter;stroke-miterlimit:4;stroke-dasharray:none;stroke-opacity:1"
       id="flowRoot3360">
      <path
         d="m -84.15,100.40133 c 9,0 14.2,-5.45 14.2,-11.65 0,-5.25 -2.75,-8.35 -7.35,-10.2 l -4.65,-1.85 c -3.3,-1.3 -5.65,-2.1 -5.65,-4.15 0,-2 1.7,-3.1 4.45,-3.1 2.9,0 5.2,1 7.65,2.85 l 4.45,-5.6 c -3.25,-3.25 -7.8,-4.9 -12.1,-4.9 -7.9,0 -13.5,5 -13.5,11.25 0,5.4 3.65,8.65 7.55,10.2 l 4.75,2 c 3.2,1.35 5.25,2.05 5.25,4.2 0,2 -1.55,3.25 -4.85,3.25 -2.95,0 -6.4,-1.55 -9.05,-3.8 l -5.05,6.15 c 3.85,3.55 9.05,5.35 13.9,5.35 z"
         style="font-style:normal;font-variant:normal;font-weight:900;font-stretch:normal;font-size:50px;font-family:'Noto Sans CJK TC';-inkscape-font-specification:'Noto Sans CJK TC Heavy';fill:#fff000;fill-opacity:0;stroke:#000000;stroke-width:3;stroke-miterlimit:4;stroke-dasharray:none;stroke-opacity:1"
         id="path4565" />
    </g>
  </g>
</svg>
