<?xml version="1.0" encoding="UTF-8" standalone="no"?>
<svg
   xmlns:dc="http://purl.org/dc/elements/1.1/"
   xmlns:cc="http://creativecommons.org/ns#"
   xmlns:rdf="http://www.w3.org/1999/02/22-rdf-syntax-ns#"
   xmlns:svg="http://www.w3.org/2000/svg"
   xmlns="http://www.w3.org/2000/svg"
   xmlns:sodipodi="http://sodipodi.sourceforge.net/DTD/sodipodi-0.dtd"
   xmlns:inkscape="http://www.inkscape.org/namespaces/inkscape"
   width="100"
   height="100"
   viewBox="0 0 100 100"
   id="svg3770"
   version="1.1"
   inkscape:version="0.91 r13725"
   sodipodi:docname="welcome-page.svg">
  <defs
     id="defs3772" />
  <sodipodi:namedview
     id="base"
     pagecolor="#ffffff"
     bordercolor="#666666"
     borderopacity="1.0"
     inkscape:pageopacity="0.0"
     inkscape:pageshadow="2"
     inkscape:zoom="3.959798"
     inkscape:cx="21.329268"
     inkscape:cy="31.855924"
     inkscape:document-units="px"
     inkscape:current-layer="layer1"
     showgrid="false"
     inkscape:snap-page="true"
     inkscape:window-width="1920"
     inkscape:window-height="1005"
     inkscape:window-x="0"
     inkscape:window-y="24"
     inkscape:window-maximized="1"
     units="px"
     width="100px" />
  <metadata
     id="metadata3775">
    <rdf:RDF>
      <cc:Work
         rdf:about="">
        <dc:format>image/svg+xml</dc:format>
        <dc:type
           rdf:resource="http://purl.org/dc/dcmitype/StillImage" />
        <dc:title />
      </cc:Work>
    </rdf:RDF>
  </metadata>
  <g
     inkscape:label="Layer 1"
     inkscape:groupmode="layer"
     id="layer1"
     transform="translate(0,-952.3622)">
    <path
       style="display:inline;fill:#ffffff;fill-opacity:1;fill-rule:evenodd;stroke:#000000;stroke-width:4;stroke-linecap:butt;stroke-linejoin:round;stroke-miterlimit:4;stroke-dasharray:none;stroke-opacity:1"
       d="m 19.766394,957.805 30,0 30.000002,30 0,60 -60.000002,0 z"
       id="path4620-7-9-5-1-4-2-2-6"
       inkscape:connector-curvature="0"
       sodipodi:nodetypes="cccccc" />
    <path
       style="display:inline;fill:none;fill-opacity:1;fill-rule:evenodd;stroke:#000000;stroke-width:4;stroke-linecap:round;stroke-linejoin:round;stroke-miterlimit:4;stroke-dasharray:none;stroke-opacity:1"
       d="m 49.640125,957.805 0,30 30.000002,0"
       id="path9927-5-6"
       inkscape:connector-curvature="0"
       sodipodi:nodetypes="ccc" />
    <g
       transform="translate(126.96915,940.35676)"
       style="font-style:normal;font-weight:normal;font-size:80px;line-height:125%;font-family:sans-serif;letter-spacing:0px;word-spacing:0px;fill:#fff000;fill-opacity:0;stroke:#000000;stroke-width:3;stroke-linecap:butt;stroke-linejoin:miter;stroke-miterlimit:4;stroke-dasharray:none;stroke-opacity:1"
       id="flowRoot3360">
      <path
         d="m -92.5,99.70133 11.05,0 3.25,-16.2 c 0.55,-2.85 1,-5.85 1.45,-8.65 l 0.25,0 c 0.35,2.8 0.85,5.8 1.45,8.65 l 3.35,16.2 11.25,0 6.45,-37.2 -8.5,0 -2.4,16.95 c -0.45,3.85 -0.95,7.8 -1.4,11.8 l -0.25,0 c -0.75,-4 -1.4,-8 -2.15,-11.8 l -3.9,-16.95 -7.5,0 -3.8,16.95 c -0.75,3.85 -1.5,7.85 -2.2,11.8 l -0.2,0 -1.5,-11.8 -2.35,-16.95 -9.15,0 6.8,37.2 z"
         style="font-style:normal;font-variant:normal;font-weight:900;font-stretch:normal;font-size:50px;font-family:'Noto Sans CJK TC';-inkscape-font-specification:'Noto Sans CJK TC Heavy';fill:#fff000;fill-opacity:0;stroke:#000000;stroke-width:3;stroke-miterlimit:4;stroke-dasharray:none;stroke-opacity:1"
         id="path3731" />
    </g>
  </g>
</svg>
