<?xml version="1.0" ?><!DOCTYPE svg  PUBLIC '-//W3C//DTD SVG 1.1//EN'  'http://www.w3.org/Graphics/SVG/1.1/DTD/svg11.dtd' [
	<!ENTITY stroke_color "#666666">
	<!ENTITY fill_color "#ffffff">
]><svg enable-background="new 0 0 55 55" height="55px" id="svg3391" inkscape:version="0.91 r" sodipodi:docname="edit-fonts-new.svg" version="1.1" viewBox="0 0 55 55" width="55px" x="0px" xml:space="preserve" xmlns="http://www.w3.org/2000/svg" xmlns:cc="http://creativecommons.org/ns#" xmlns:dc="http://purl.org/dc/elements/1.1/" xmlns:inkscape="http://www.inkscape.org/namespaces/inkscape" xmlns:rdf="http://www.w3.org/1999/02/22-rdf-syntax-ns#" xmlns:sodipodi="http://sodipodi.sourceforge.net/DTD/sodipodi-0.dtd" xmlns:svg="http://www.w3.org/2000/svg" xmlns:xlink="http://www.w3.org/1999/xlink" y="0px"><metadata id="metadata3406"><rdf:RDF><cc:Work rdf:about=""><dc:format>image/svg+xml</dc:format><dc:type rdf:resource="http://purl.org/dc/dcmitype/StillImage"/><dc:title/></cc:Work></rdf:RDF></metadata><defs id="defs3404"><mask id="mask5_outline_ins"><use fill="white" id="use12043" transform="translate(86 -28)" xlink:href="#path8_fill"/></mask><mask id="mask1_outline_ins"><use fill="white" id="use11999" transform="translate(59 -28)" xlink:href="#path6_fill"/></mask><mask id="mask4_outline_ins"><use fill="white" id="use12032" transform="translate(90 -44)" xlink:href="#path8_fill"/></mask><mask id="mask2_outline_ins"><use fill="white" id="use12010" transform="translate(63 -44)" xlink:href="#path8_fill"/></mask><mask id="mask6_outline_ins"><use fill="white" id="use12054" transform="translate(94 -60)" xlink:href="#path8_fill"/></mask><mask id="mask3_outline_ins"><use fill="white" id="use12021" transform="translate(67 -60)" xlink:href="#path8_fill"/></mask><mask id="mask5_outline_ins-3"><use fill="white" id="use12043-6" transform="translate(86 -28)" xlink:href="#path8_fill"/></mask><mask id="mask1_outline_ins-7"><use fill="white" id="use11999-5" transform="translate(59 -28)" xlink:href="#path6_fill"/></mask><mask id="mask4_outline_ins-3"><use fill="white" id="use12032-5" transform="translate(90 -44)" xlink:href="#path8_fill"/></mask><mask id="mask2_outline_ins-6"><use fill="white" id="use12010-2" transform="translate(63 -44)" xlink:href="#path8_fill"/></mask><mask id="mask6_outline_ins-9"><use fill="white" id="use12054-1" transform="translate(94 -60)" xlink:href="#path8_fill"/></mask><mask id="mask3_outline_ins-2"><use fill="white" id="use12021-7" transform="translate(67 -60)" xlink:href="#path8_fill"/></mask><mask id="mask5_outline_ins-5"><use fill="white" id="use12043-5" transform="translate(86 -28)" xlink:href="#path8_fill"/></mask><mask id="mask1_outline_ins-4"><use fill="white" id="use11999-7" transform="translate(59 -28)" xlink:href="#path6_fill"/></mask><mask id="mask4_outline_ins-6"><use fill="white" id="use12032-56" transform="translate(90 -44)" xlink:href="#path8_fill"/></mask><mask id="mask2_outline_ins-9"><use fill="white" id="use12010-3" transform="translate(63 -44)" xlink:href="#path8_fill"/></mask><mask id="mask6_outline_ins-7"><use fill="white" id="use12054-4" transform="translate(94 -60)" xlink:href="#path8_fill"/></mask><mask id="mask3_outline_ins-5"><use fill="white" id="use12021-2" transform="translate(67 -60)" xlink:href="#path8_fill"/></mask><mask id="mask6_outline_ins-1"><use height="100%" id="use12054-7" style="fill:&fill_color;" transform="translate(94,-60)" width="100%" x="0" xlink:href="#path8_fill" y="0"/></mask><mask id="mask5_outline_ins-7"><use height="100%" id="use12043-1" style="fill:&fill_color;" transform="translate(86,-28)" width="100%" x="0" xlink:href="#path8_fill" y="0"/></mask><mask id="mask4_outline_ins-1"><use height="100%" id="use12032-59" style="fill:&fill_color;" transform="translate(90,-44)" width="100%" x="0" xlink:href="#path8_fill" y="0"/></mask><mask id="mask3_outline_ins-7"><use height="100%" id="use12021-76" style="fill:&fill_color;" transform="translate(67,-60)" width="100%" x="0" xlink:href="#path8_fill" y="0"/></mask><mask id="mask2_outline_ins-7"><use height="100%" id="use12010-36" style="fill:&fill_color;" transform="translate(63,-44)" width="100%" x="0" xlink:href="#path8_fill" y="0"/></mask><mask id="mask1_outline_ins-5"><use height="100%" id="use11999-6" style="fill:&fill_color;" transform="translate(59,-28)" width="100%" x="0" xlink:href="#path6_fill" y="0"/></mask><path d="M 0.0250627 -1.74982L -1.72476 -1.77488L -1.77488 1.72476L -0.0250627 1.74982L 0.0250627 -1.74982ZM 26.4777 2.12942L 28.2275 2.15448L 28.2776 -1.34516L 26.5278 -1.37022L 26.4777 2.12942ZM -0.0250627 1.74982L 26.4777 2.12942L 26.5278 -1.37022L 0.0250627 -1.74982L -0.0250627 1.74982Z" id="path0_stroke"/><path d="M 0.0266283 -1.7498L -1.72317 -1.77643L -1.77643 1.72317L -0.0266283 1.7498L 0.0266283 -1.7498ZM 26.9765 2.16073L 28.7263 2.18736L 28.7796 -1.31224L 27.0298 -1.33886L 26.9765 2.16073ZM -0.0266283 1.7498L 26.9765 2.16073L 27.0298 -1.33886L 0.0266283 -1.7498L -0.0266283 1.7498Z" id="path1_stroke"/><path d="M 0.488036 -1.68057L -1.19254 -2.16861L -2.16861 1.19254L -0.488036 1.68057L 0.488036 -1.68057ZM 15.5252 6.33079L 17.2057 6.81883L 18.1818 3.45768L 16.5012 2.96965L 15.5252 6.33079ZM -0.488036 1.68057L 15.5252 6.33079L 16.5012 2.96965L 0.488036 -1.68057L -0.488036 1.68057Z" id="path2_stroke"/><path d="M 0.488036 -1.68057L -1.19254 -2.16861L -2.16861 1.19254L -0.488036 1.68057L 0.488036 -1.68057ZM 15.5252 6.33079L 17.2057 6.81883L 18.1818 3.45768L 16.5012 2.96965L 15.5252 6.33079ZM -0.488036 1.68057L 15.5252 6.33079L 16.5012 2.96965L 0.488036 -1.68057L -0.488036 1.68057Z" id="path3_stroke"/><path d="M 0.480239 -1.68282L -1.20258 -2.16306L -2.16306 1.20258L -0.480239 1.68282L 0.480239 -1.68282ZM 15.5299 6.25175L 17.2127 6.73199L 18.1732 3.36636L 16.4904 2.88612L 15.5299 6.25175ZM -0.480239 1.68282L 15.5299 6.25175L 16.4904 2.88612L 0.480239 -1.68282L -0.480239 1.68282Z" id="path4_stroke"/><path d="M 0.0266282 -1.7498L -1.72317 -1.77643L -1.77643 1.72317L -0.0266282 1.7498L 0.0266282 -1.7498ZM 26.9765 2.16073L 28.7263 2.18736L 28.7796 -1.31224L 27.0298 -1.33887L 26.9765 2.16073ZM -0.0266282 1.7498L 26.9765 2.16073L 27.0298 -1.33887L 0.0266282 -1.7498L -0.0266282 1.7498Z" id="path5_stroke"/><path d="M 12 6C 12 9.31371 9.31371 12 6 12C 2.68629 12 0 9.31371 0 6C 0 2.68629 2.68629 0 6 0C 9.31371 0 12 2.68629 12 6Z" id="path6_fill"/><path d="M 8.5 6C 8.5 7.38071 7.38071 8.5 6 8.5L 6 15.5C 11.2467 15.5 15.5 11.2467 15.5 6L 8.5 6ZM 6 8.5C 4.61929 8.5 3.5 7.38071 3.5 6L -3.5 6C -3.5 11.2467 0.753295 15.5 6 15.5L 6 8.5ZM 3.5 6C 3.5 4.61929 4.61929 3.5 6 3.5L 6 -3.5C 0.753295 -3.5 -3.5 0.753295 -3.5 6L 3.5 6ZM 6 3.5C 7.38071 3.5 8.5 4.61929 8.5 6L 15.5 6C 15.5 0.753295 11.2467 -3.5 6 -3.5L 6 3.5Z" id="path7_stroke_2x"/><path d="M 12 6C 12 9.31371 9.31371 12 6 12C 2.68629 12 0 9.31371 0 6C 0 2.68629 2.68629 0 6 0C 9.31371 0 12 2.68629 12 6Z" id="path8_fill"/><path d="M 8.5 6C 8.5 7.38071 7.38071 8.5 6 8.5L 6 15.5C 11.2467 15.5 15.5 11.2467 15.5 6L 8.5 6ZM 6 8.5C 4.61929 8.5 3.5 7.38071 3.5 6L -3.5 6C -3.5 11.2467 0.753295 15.5 6 15.5L 6 8.5ZM 3.5 6C 3.5 4.61929 4.61929 3.5 6 3.5L 6 -3.5C 0.753295 -3.5 -3.5 0.753295 -3.5 6L 3.5 6ZM 6 3.5C 7.38071 3.5 8.5 4.61929 8.5 6L 15.5 6C 15.5 0.753295 11.2467 -3.5 6 -3.5L 6 3.5Z" id="path9_stroke_2x"/><path d="M 0.0266283 -1.7498L -1.72317 -1.77643L -1.77643 1.72317L -0.0266283 1.7498L 0.0266283 -1.7498ZM 26.9765 2.16073L 28.7263 2.18736L 28.7796 -1.31224L 27.0298 -1.33886L 26.9765 2.16073ZM -0.0266283 1.7498L 26.9765 2.16073L 27.0298 -1.33886L 0.0266283 -1.7498L -0.0266283 1.7498Z" id="path0_stroke-4"/><path d="M 0.0250627 -1.74982L -1.72476 -1.77488L -1.77488 1.72476L -0.0250627 1.74982L 0.0250627 -1.74982ZM 26.4777 2.12942L 28.2275 2.15448L 28.2776 -1.34516L 26.5278 -1.37022L 26.4777 2.12942ZM -0.0250627 1.74982L 26.4777 2.12942L 26.5278 -1.37022L 0.0250627 -1.74982L -0.0250627 1.74982Z" id="path1_stroke-3"/><path d="M 0.480239 -1.68282L -1.20258 -2.16306L -2.16306 1.20258L -0.480239 1.68282L 0.480239 -1.68282ZM 15.5299 6.25175L 17.2127 6.73199L 18.1732 3.36636L 16.4904 2.88612L 15.5299 6.25175ZM -0.480239 1.68282L 15.5299 6.25175L 16.4904 2.88612L 0.480239 -1.68282L -0.480239 1.68282Z" id="path2_stroke-3"/><path d="M 0.488036 -1.68057L -1.19254 -2.16861L -2.16861 1.19254L -0.488036 1.68057L 0.488036 -1.68057ZM 15.5252 6.33079L 17.2057 6.81883L 18.1818 3.45768L 16.5012 2.96965L 15.5252 6.33079ZM -0.488036 1.68057L 15.5252 6.33079L 16.5012 2.96965L 0.488036 -1.68057L -0.488036 1.68057Z" id="path3_stroke-3"/><path d="M 0.488036 -1.68057L -1.19254 -2.16861L -2.16861 1.19254L -0.488036 1.68057L 0.488036 -1.68057ZM 15.5252 6.33079L 17.2057 6.81883L 18.1818 3.45768L 16.5012 2.96965L 15.5252 6.33079ZM -0.488036 1.68057L 15.5252 6.33079L 16.5012 2.96965L 0.488036 -1.68057L -0.488036 1.68057Z" id="path4_stroke-8"/><path d="M 3.42356e-17 -1.75L -1.75 -1.75L -1.75 1.75L -3.42356e-17 1.75L 3.42356e-17 -1.75ZM 27 1.75L 28.75 1.75L 28.75 -1.75L 27 -1.75L 27 1.75ZM -3.42356e-17 1.75L 27 1.75L 27 -1.75L 3.42356e-17 -1.75L -3.42356e-17 1.75Z" id="path5_stroke-6"/><path d="M 8 4C 8 6.20914 6.20914 8 4 8C 1.79086 8 0 6.20914 0 4C 0 1.79086 1.79086 0 4 0C 6.20914 0 8 1.79086 8 4Z" id="path6_fill-0"/><path d="M 12 6C 12 9.31371 9.31371 12 6 12C 2.68629 12 0 9.31371 0 6C 0 2.68629 2.68629 0 6 0C 9.31371 0 12 2.68629 12 6Z" id="path7_fill"/><path d="M 8.5 6C 8.5 7.38071 7.38071 8.5 6 8.5L 6 15.5C 11.2467 15.5 15.5 11.2467 15.5 6L 8.5 6ZM 6 8.5C 4.61929 8.5 3.5 7.38071 3.5 6L -3.5 6C -3.5 11.2467 0.753295 15.5 6 15.5L 6 8.5ZM 3.5 6C 3.5 4.61929 4.61929 3.5 6 3.5L 6 -3.5C 0.753295 -3.5 -3.5 0.753295 -3.5 6L 3.5 6ZM 6 3.5C 7.38071 3.5 8.5 4.61929 8.5 6L 15.5 6C 15.5 0.753295 11.2467 -3.5 6 -3.5L 6 3.5Z" id="path8_stroke_2x"/><path d="M 12 6C 12 9.31371 9.31371 12 6 12C 2.68629 12 0 9.31371 0 6C 0 2.68629 2.68629 0 6 0C 9.31371 0 12 2.68629 12 6Z" id="path9_fill"/><path d="M 8.5 6C 8.5 7.38071 7.38071 8.5 6 8.5L 6 15.5C 11.2467 15.5 15.5 11.2467 15.5 6L 8.5 6ZM 6 8.5C 4.61929 8.5 3.5 7.38071 3.5 6L -3.5 6C -3.5 11.2467 0.753295 15.5 6 15.5L 6 8.5ZM 3.5 6C 3.5 4.61929 4.61929 3.5 6 3.5L 6 -3.5C 0.753295 -3.5 -3.5 0.753295 -3.5 6L 3.5 6ZM 6 3.5C 7.38071 3.5 8.5 4.61929 8.5 6L 15.5 6C 15.5 0.753295 11.2467 -3.5 6 -3.5L 6 3.5Z" id="path10_stroke_2x"/></defs><sodipodi:namedview bordercolor="#666666" borderopacity="1" gridtolerance="10" guidetolerance="10" id="namedview3402" inkscape:current-layer="layer3" inkscape:cx="30.465675" inkscape:cy="20.739253" inkscape:object-nodes="true" inkscape:pageopacity="0" inkscape:pageshadow="2" inkscape:snap-intersection-paths="true" inkscape:snap-smooth-nodes="true" inkscape:window-height="1026" inkscape:window-maximized="1" inkscape:window-width="1615" inkscape:window-x="65" inkscape:window-y="24" inkscape:zoom="8.3155757" objecttolerance="10" pagecolor="#9696a0" showgrid="true"><inkscape:grid empspacing="2" id="grid3416" spacingx="1" spacingy="1" type="xygrid"/></sodipodi:namedview><g id="layer3" inkscape:groupmode="layer" inkscape:label="icon" style="display:inline"><circle cx="37" cy="43" id="circle3489-9-2-5-4-4" r="9" style="display:block;fill:&fill_color;;fill-opacity:1;stroke:none;stroke-width:3.5;stroke-opacity:1"/><circle cx="10" cy="43" id="circle3489-9-2-0-6" r="9" style="display:block;fill:&fill_color;;fill-opacity:1;stroke:none;stroke-width:3.5;stroke-opacity:1"/><path d="M 10,47 18,7 45,7 37,47 Z" id="path14099" inkscape:connector-curvature="0" sodipodi:nodetypes="ccccc" style="fill:&fill_color;;fill-opacity:1;fill-rule:evenodd;stroke:none;stroke-width:1px;stroke-linecap:butt;stroke-linejoin:miter;stroke-opacity:1"/><circle cx="41" cy="27" id="circle3489-9-2-5-4" r="9" style="display:block;fill:&fill_color;;fill-opacity:1;stroke:none;stroke-width:3.5;stroke-opacity:1"/><circle cx="14" cy="27" id="circle3489-9-2-0" r="9" style="display:block;fill:&fill_color;;fill-opacity:1;stroke:none;stroke-width:3.5;stroke-opacity:1"/><circle cx="45" cy="11" id="circle3489-9-2-5" r="9" style="display:block;fill:&fill_color;;fill-opacity:1;stroke:none;stroke-width:3.5;stroke-opacity:1"/><circle cx="18" cy="11" id="circle3489-9-2" r="9" style="display:block;fill:&fill_color;;fill-opacity:1;stroke:none;stroke-width:3.5;stroke-opacity:1"/><path d="m 6,43 c 0,-2.5 2,-4 4,-4 2,0 4,1.5 4,4 0,2.5 -2,4 -4,4 -2,0 -4,-1.5 -4,-4 z" id="path13751" inkscape:connector-curvature="0" sodipodi:nodetypes="sssss" style="fill:none;fill-rule:evenodd;stroke:&stroke_color;;stroke-width:3.5;stroke-linecap:butt;stroke-linejoin:miter;stroke-miterlimit:4;stroke-dasharray:none;stroke-opacity:1"/><path d="m 10,27 c 0,-2.5 2,-4 4,-4 2,0 4,1.5 4,4 0,2.5 -2,4 -4,4 -2,0 -4,-1.5 -4,-4 z" id="path13751-8" inkscape:connector-curvature="0" sodipodi:nodetypes="sssss" style="fill:none;fill-rule:evenodd;stroke:&stroke_color;;stroke-width:3.5;stroke-linecap:butt;stroke-linejoin:miter;stroke-miterlimit:4;stroke-dasharray:none;stroke-opacity:1"/><path d="m 14,11 c 0,-2.5 2,-4 4,-4 2,0 4,1.5 4,4 0,2.5 -2,4 -4,4 -2,0 -4,-1.5 -4,-4 z" id="path13751-8-8" inkscape:connector-curvature="0" sodipodi:nodetypes="sssss" style="fill:none;fill-rule:evenodd;stroke:&stroke_color;;stroke-width:3.5;stroke-linecap:butt;stroke-linejoin:miter;stroke-miterlimit:4;stroke-dasharray:none;stroke-opacity:1"/><path d="m 37,27 c 0,-2.5 2,-4 4,-4 2,0 4,1.5 4,4 0,2.5 -2,4 -4,4 -2,0 -4,-1.5 -4,-4 z" id="path13751-89" inkscape:connector-curvature="0" sodipodi:nodetypes="sssss" style="fill:none;fill-rule:evenodd;stroke:&stroke_color;;stroke-width:3.5;stroke-linecap:butt;stroke-linejoin:miter;stroke-miterlimit:4;stroke-dasharray:none;stroke-opacity:1"/><path d="m 33,43 c 0,-2.5 2,-4 4,-4 2,0 4,1.5 4,4 0,2.5 -2,4 -4,4 -2,0 -4,-1.5 -4,-4 z" id="path13751-8-7" inkscape:connector-curvature="0" sodipodi:nodetypes="sssss" style="fill:none;fill-rule:evenodd;stroke:&stroke_color;;stroke-width:3.5;stroke-linecap:butt;stroke-linejoin:miter;stroke-miterlimit:4;stroke-dasharray:none;stroke-opacity:1"/><path d="m 41,11 c 0,-2.5 2,-4 4,-4 2,0 4,1.5 4,4 0,2.5 -2,4 -4,4 -2,0 -4,-1.5 -4,-4 z" id="path13751-8-8-7" inkscape:connector-curvature="0" sodipodi:nodetypes="sssss" style="fill:none;fill-rule:evenodd;stroke:&stroke_color;;stroke-width:3.5;stroke-linecap:butt;stroke-linejoin:miter;stroke-miterlimit:4;stroke-dasharray:none;stroke-opacity:1"/><path d="m 13,32 -2,8" id="path13871" inkscape:connector-curvature="0" sodipodi:nodetypes="cc" style="display:inline;fill:none;fill-rule:evenodd;stroke:&stroke_color;;stroke-width:3.5;stroke-linecap:butt;stroke-linejoin:miter;stroke-miterlimit:4;stroke-dasharray:none;stroke-opacity:1"/><path d="m 17,16 -2,8" id="path13871-6" inkscape:connector-curvature="0" sodipodi:nodetypes="cc" style="display:inline;fill:none;fill-rule:evenodd;stroke:&stroke_color;;stroke-width:3.5;stroke-linecap:butt;stroke-linejoin:miter;stroke-miterlimit:4;stroke-dasharray:none;stroke-opacity:1"/><path d="m 44,16 -2,8" id="path13871-6-4" inkscape:connector-curvature="0" sodipodi:nodetypes="cc" style="display:inline;fill:none;fill-rule:evenodd;stroke:&stroke_color;;stroke-width:3.5;stroke-linecap:butt;stroke-linejoin:miter;stroke-miterlimit:4;stroke-dasharray:none;stroke-opacity:1"/><path d="m 41.000018,12.012849 -19.074627,0" id="path13871-6-4-3" inkscape:connector-curvature="0" sodipodi:nodetypes="cc" style="display:inline;fill:none;fill-rule:evenodd;stroke:&stroke_color;;stroke-width:3.5;stroke-linecap:butt;stroke-linejoin:miter;stroke-miterlimit:4;stroke-dasharray:none;stroke-opacity:1"/><path d="m 36.925391,28.012849 -19,0" id="path13871-6-4-3-0" inkscape:connector-curvature="0" sodipodi:nodetypes="cc" style="display:inline;fill:none;fill-rule:evenodd;stroke:&stroke_color;;stroke-width:3.5;stroke-linecap:butt;stroke-linejoin:miter;stroke-miterlimit:4;stroke-dasharray:none;stroke-opacity:1"/><path d="M 33,43 14,43" id="path13871-6-4-3-0-3" inkscape:connector-curvature="0" sodipodi:nodetypes="cc" style="display:inline;fill:none;fill-rule:evenodd;stroke:&stroke_color;;stroke-width:3.5;stroke-linecap:butt;stroke-linejoin:miter;stroke-miterlimit:4;stroke-dasharray:none;stroke-opacity:1"/></g></svg>