<?xml version="1.0" encoding="UTF-8" standalone="no"?>
<svg
   xmlns:dc="http://purl.org/dc/elements/1.1/"
   xmlns:cc="http://creativecommons.org/ns#"
   xmlns:rdf="http://www.w3.org/1999/02/22-rdf-syntax-ns#"
   xmlns:svg="http://www.w3.org/2000/svg"
   xmlns="http://www.w3.org/2000/svg"
   xmlns:sodipodi="http://sodipodi.sourceforge.net/DTD/sodipodi-0.dtd"
   xmlns:inkscape="http://www.inkscape.org/namespaces/inkscape"
   version="1.1"
   width="50"
   height="50"
   viewBox="0 0 50 50"
   id="svg2"
   inkscape:version="0.91 r13725"
   sodipodi:docname="activity-icon.svg">
  <metadata
     id="metadata9">
    <rdf:RDF>
      <cc:Work
         rdf:about="">
        <dc:format>image/svg+xml</dc:format>
        <dc:type
           rdf:resource="http://purl.org/dc/dcmitype/StillImage" />
        <dc:title></dc:title>
      </cc:Work>
    </rdf:RDF>
  </metadata>
  <defs
     id="defs7" />
  <sodipodi:namedview
     pagecolor="#ffffff"
     bordercolor="#666666"
     borderopacity="1"
     objecttolerance="10"
     gridtolerance="10"
     guidetolerance="10"
     inkscape:pageopacity="0"
     inkscape:pageshadow="2"
     inkscape:window-width="1616"
     inkscape:window-height="929"
     id="namedview5"
     showgrid="true"
     inkscape:snap-grids="false"
     inkscape:zoom="6.675088"
     inkscape:cx="21.925443"
     inkscape:cy="22.623303"
     inkscape:window-x="1712"
     inkscape:window-y="59"
     inkscape:window-maximized="0"
     inkscape:current-layer="svg2">
    <inkscape:grid
       type="xygrid"
       id="grid4137" />
  </sodipodi:namedview>
  <path
     style="display:inline;fill:none;fill-opacity:1;fill-rule:evenodd;stroke:#000000;stroke-width:1.26054013;stroke-linecap:butt;stroke-linejoin:round;stroke-miterlimit:4;stroke-dasharray:none;stroke-opacity:1"
     d="m 5.30997,6.3275655 12.340353,0 0,3.8628425 -7.404212,0 0,3.862843 6.170176,0 0,3.862842 -6.170176,0 0,7.081881 -4.936141,0 z"
     id="path4620-7-9-5-1-4-2-9"
     inkscape:connector-curvature="0"
     sodipodi:nodetypes="ccccccccccc" />
  <path
     style="color:#000000;font-style:normal;font-variant:normal;font-weight:normal;font-stretch:normal;font-size:medium;line-height:normal;font-family:sans-serif;text-indent:0;text-align:start;text-decoration:none;text-decoration-line:none;text-decoration-style:solid;text-decoration-color:#000000;letter-spacing:normal;word-spacing:normal;text-transform:none;direction:ltr;block-progression:tb;writing-mode:lr-tb;baseline-shift:baseline;text-anchor:start;white-space:normal;clip-rule:nonzero;display:inline;overflow:visible;visibility:visible;opacity:1;isolation:auto;mix-blend-mode:normal;color-interpolation:sRGB;color-interpolation-filters:linearRGB;solid-color:#000000;solid-opacity:1;fill:#000000;fill-opacity:1;fill-rule:evenodd;stroke:none;stroke-width:1.36948514;stroke-linecap:butt;stroke-linejoin:round;stroke-miterlimit:4;stroke-dasharray:none;stroke-dashoffset:0;stroke-opacity:1;color-rendering:auto;image-rendering:auto;shape-rendering:auto;text-rendering:auto;enable-background:accumulate"
     d="m 16.259877,17.560378 c -0.404083,0.02223 -0.683151,0.413619 -0.572455,0.802878 l 2.568849,9.026076 c 0.01115,0.202572 0.118984,0.387437 0.289828,0.496849 l 0.0036,0.0018 20.786621,19.476093 c 0.242638,0.226928 0.619647,0.226928 0.862284,0 l 7.171898,-6.720053 c 0.266519,-0.249429 0.266519,-0.67226 0,-0.921689 L 26.567679,20.231837 c -0.110355,-0.138182 -0.273618,-0.223731 -0.450043,-0.235823 l -9.670541,-2.417635 c -0.06115,-0.01532 -0.124263,-0.02138 -0.187218,-0.018 z m 3.611152,2.17461 5.57334,1.393336 0,1.929788 -3.281719,0 c -0.348418,6.2e-4 -0.630435,0.283441 -0.630061,0.631861 l 0,3.033295 -2.154808,0 -1.465344,-5.153901 z m 6.835263,2.35643 L 46.016769,40.183176 45.3093,40.84564 26.706292,23.416348 Z m -3.91178,2.228616 3.031495,0 18.559803,17.391491 -2.98829,2.799272 -18.603008,-17.429294 z m -2.297023,3.665157 1.414938,0 18.561604,17.391489 -0.705669,0.660665 z"
     id="path4620-61-5-0-3-4-7"
     inkscape:connector-curvature="0"
     sodipodi:nodetypes="cccccccccccccccccccccccccccccccccccccc" />
</svg>
